<?xml version="1.0" standalone="no"?>
<!DOCTYPE svg PUBLIC "-//W3C//DTD SVG 20010904//EN"
 "http://www.w3.org/TR/2001/REC-SVG-20010904/DTD/svg10.dtd">
<svg version="1.0" xmlns="http://www.w3.org/2000/svg"
 width="640.000000pt" height="426.000000pt" viewBox="0 0 640.000000 426.000000"
 preserveAspectRatio="xMidYMid meet">

<g transform="translate(0.000000,426.000000) scale(0.100000,-0.100000)"
fill="#000000" stroke="none">
<path d="M0 4126 c0 -100 4 -143 16 -172 12 -28 15 -55 10 -96 -3 -34 -2 -60
5 -63 6 -4 9 -56 7 -133 -1 -70 1 -133 6 -140 9 -15 29 -298 30 -429 1 -73 -1
-84 -23 -107 -14 -14 -30 -26 -38 -26 -11 0 -13 -258 -13 -1480 l0 -1480 3200
0 3200 0 0 2130 0 2130 -3200 0 -3200 0 0 -134z m2430 14 c8 0 23 -7 34 -15
17 -13 18 -30 17 -253 -1 -131 -3 -269 -5 -305 l-2 -66 30 -4 c17 -3 -30 -4
-106 -4 -123 0 -136 2 -133 17 2 10 -3 30 -11 46 -25 47 -24 121 0 199 2 6 4
15 6 20 1 6 7 18 12 29 6 10 10 80 10 155 -1 92 3 141 11 152 21 28 51 40 87
34 19 -2 42 -5 50 -5z m-637 -42 c16 -20 18 -35 12 -162 -4 -78 -13 -168 -20
-201 -12 -55 -21 -116 -29 -188 -3 -28 0 -30 64 -40 14 -2 -4 -5 -40 -5 -92
-2 -233 19 -220 32 11 11 14 160 3 153 -8 -5 -8 218 0 263 2 14 5 30 6 37 0 6
9 19 18 28 9 10 24 31 32 48 11 22 30 37 61 49 52 20 88 16 113 -14z m976 15
c64 -6 83 -5 94 6 10 10 60 -1 80 -17 7 -6 26 -13 44 -16 31 -7 42 -21 49 -61
2 -11 6 -34 10 -52 3 -19 -1 -64 -10 -107 -17 -75 -24 -306 -10 -328 5 -7 2
-8 -6 -3 -8 5 -11 3 -8 -6 3 -8 -2 -19 -11 -26 -14 -11 -14 -12 2 -13 9 0 17
-4 17 -9 0 -4 -12 -7 -27 -5 -16 2 -85 4 -154 4 -69 1 -131 5 -138 10 -7 4 10
6 38 5 52 -2 62 4 37 24 -16 14 -48 4 -40 -13 3 -6 -4 0 -15 13 -18 20 -21 21
-21 6 0 -17 -1 -17 -22 1 -12 10 -18 13 -13 5 4 -8 2 -17 -6 -22 -11 -7 -10
-9 4 -9 9 0 17 -4 17 -8 0 -7 -22 -8 -95 -2 -27 3 -27 3 10 10 38 7 38 7 8 9
-42 1 -47 12 -34 69 19 84 23 165 9 174 -8 5 -9 11 -3 16 12 9 15 195 3 203
-4 3 -11 32 -14 65 l-6 59 38 17 c27 13 52 16 83 12 24 -3 65 -8 90 -11z m903
-47 c4 -6 8 -7 8 -2 0 5 15 -12 34 -39 l34 -48 -25 -41 c-33 -51 -39 -92 -15
-105 9 -6 12 -11 5 -11 -23 0 -14 -17 17 -30 44 -18 57 -47 65 -142 8 -92 2
-140 -21 -162 -12 -13 -9 -16 28 -25 l43 -10 -45 4 c-25 2 -118 5 -208 6 -90
2 -165 6 -168 11 -3 4 7 8 23 9 26 0 27 1 6 9 -34 14 -38 62 -18 208 4 28 12
52 16 52 5 0 14 20 20 45 6 25 15 48 20 51 5 3 9 14 9 25 0 10 9 28 19 38 17
17 49 88 75 164 5 15 12 17 38 12 18 -4 36 -13 40 -19z m-2219 -6 c9 -8 17
-22 17 -32 0 -9 4 -19 9 -22 12 -8 1 -49 -16 -59 -7 -4 -13 -22 -13 -40 0 -18
-7 -70 -15 -117 -16 -87 -40 -278 -50 -388 -6 -65 0 -106 15 -97 5 3 10 1 12
-5 1 -5 13 -11 25 -13 12 -2 25 -6 29 -10 10 -9 5 -163 -6 -192 -5 -14 -17
-28 -25 -30 -8 -3 -23 -8 -32 -12 -10 -3 -22 -5 -26 -4 -5 1 -20 -8 -34 -19
-37 -29 -135 -28 -164 1 -20 20 -21 28 -14 108 5 47 7 118 6 157 -1 52 4 87
19 125 25 68 38 144 45 284 4 61 15 143 26 183 10 40 19 86 19 103 0 17 5 39
10 50 23 42 126 60 163 29z m3145 -68 c13 -27 18 -48 12 -50 -5 -2 -10 -12
-10 -23 0 -29 -38 -25 -50 5 -12 33 -20 102 -13 110 17 17 40 1 61 -42z m110
1 c7 -7 10 -17 7 -23 -3 -5 -1 -10 5 -10 17 0 7 -54 -10 -58 -26 -5 -49 21
-54 60 -2 21 -7 42 -11 48 -9 15 46 0 63 -17z m-2638 -38 c4 -39 0 -75 -9 -75
-4 0 -9 25 -9 56 0 52 14 66 18 19z m40 -44 c0 -17 -18 -21 -24 -6 -3 9 0 15
9 15 8 0 15 -4 15 -9z m-1694 -74 c50 -68 56 -86 60 -172 2 -45 11 -104 20
-131 36 -113 27 -168 -28 -162 -24 2 -36 11 -51 38 -10 19 -20 42 -22 51 -2 9
-10 30 -18 46 -9 16 -25 60 -38 98 -12 39 -26 76 -32 83 -5 6 -7 12 -4 12 3 0
-1 24 -9 52 -13 52 -13 53 14 83 53 58 66 59 108 2z m4434 3 c0 -5 -4 -10 -10
-10 -5 0 -10 5 -10 10 0 6 5 10 10 10 6 0 10 -4 10 -10z m160 -27 c23 -20 46
-45 52 -56 5 -11 13 -90 17 -176 3 -93 10 -156 16 -156 44 -1 78 -84 81 -198
1 -48 -2 -102 -6 -120 -5 -18 -10 -50 -12 -72 -2 -28 -11 -47 -30 -64 -25 -21
-27 -27 -21 -81 3 -34 0 -73 -7 -94 -12 -36 -46 -70 -62 -60 -4 3 -8 -10 -8
-28 0 -19 -6 -40 -12 -47 -7 -7 -13 -38 -14 -69 0 -31 -4 -75 -9 -96 -6 -29
-5 -37 4 -32 6 4 11 4 9 -1 -5 -20 14 -90 25 -91 43 -6 78 -16 84 -25 4 -6 -4
-8 -23 -3 -21 5 -25 4 -14 -4 19 -13 63 -13 55 0 -9 15 21 12 33 -2 10 -14 16
-47 31 -193 10 -91 3 -185 -18 -238 -14 -35 -15 -103 -1 -72 6 14 9 16 10 5 2
-8 2 -18 2 -21 -1 -4 21 -18 48 -33 28 -15 50 -30 50 -34 0 -4 10 -18 23 -32
36 -40 53 -64 40 -57 -6 4 -13 1 -16 -5 -3 -8 -9 -2 -15 14 -13 32 -71 55
-101 39 -28 -15 -44 -14 -37 4 4 11 -2 15 -22 14 -24 0 -25 -1 -7 -9 19 -8 19
-9 -2 -9 -15 -1 -23 5 -23 15 0 14 7 16 45 11 25 -4 45 -3 45 2 0 5 7 11 17
13 12 2 5 11 -23 31 -45 31 -54 33 -54 13 0 -19 -51 -31 -61 -15 -4 7 -6 16
-4 20 3 3 -8 5 -23 3 -24 -2 -25 -1 -9 11 16 11 16 13 2 19 -11 4 -14 2 -9 -6
5 -7 2 -9 -9 -5 -14 5 -15 2 -6 -21 9 -25 8 -25 -21 8 -17 19 -28 29 -24 21 5
-11 3 -13 -11 -7 -14 5 -16 4 -6 -7 9 -11 8 -17 -3 -26 -11 -9 -15 -9 -18 1
-4 10 -8 10 -21 -1 -13 -10 -20 -11 -31 -2 -8 7 -16 8 -18 4 -3 -4 -3 -3 -2 4
4 15 -23 25 -32 12 -3 -6 -13 -8 -21 -4 -14 5 -14 3 -2 -11 13 -16 12 -16 -8
-6 -31 17 -40 15 -17 -3 18 -14 18 -15 -7 -6 -15 5 -32 5 -41 0 -11 -6 -19 -5
-24 2 -4 7 -3 9 4 5 6 -3 13 -2 16 3 7 11 -13 9 -32 -2 -7 -5 -25 1 -45 13
l-32 22 25 -23 c18 -16 20 -20 7 -16 -10 4 -27 3 -37 -3 -13 -7 -25 -4 -46 13
-15 12 -25 16 -20 9 4 -7 2 -12 -4 -12 -6 0 -8 -5 -4 -12 4 -7 3 -8 -5 -4 -6
4 -9 11 -6 16 3 4 -1 13 -9 19 -11 9 -13 6 -11 -14 2 -14 -1 -23 -6 -19 -5 3
-7 9 -4 14 3 5 1 12 -5 15 -6 4 -10 3 -9 -2 3 -20 -2 -34 -11 -28 -6 4 -7 12
-4 18 4 7 4 9 -1 5 -4 -4 -14 -3 -22 3 -17 14 -17 -2 0 -21 6 -8 3 -7 -9 3
-24 20 -49 23 -38 5 4 -7 -2 -5 -13 5 -11 10 -26 17 -34 15 -7 -2 -13 2 -14 9
0 6 -4 15 -9 20 -5 4 -6 3 -3 -3 4 -7 0 -14 -8 -18 -9 -3 -12 -12 -8 -22 4
-11 3 -15 -4 -11 -6 4 -14 1 -16 -5 -3 -7 -6 -2 -6 11 -1 22 -3 23 -13 9 -17
-21 -39 -27 -59 -17 -8 4 -21 4 -29 -1 -8 -5 -22 -2 -37 7 -17 11 -23 12 -23
3 0 -10 -5 -9 -17 2 -20 17 -52 20 -70 5 -9 -6 -18 -5 -28 3 -9 7 -18 10 -22
7 -3 -4 -13 -1 -22 6 -14 11 -14 10 -2 -5 15 -21 2 -24 -18 -5 -11 9 -13 9 -7
0 9 -17 -6 -17 -23 0 -11 10 -12 9 -6 -2 6 -11 4 -13 -9 -8 -10 4 -19 1 -22
-8 -3 -8 -12 -11 -22 -7 -15 5 -15 4 -3 -11 12 -15 12 -17 -3 -11 -16 6 -19
13 -19 45 0 9 -6 16 -13 16 -7 0 -10 -5 -7 -10 4 -7 -1 -8 -12 -3 -14 5 -16 4
-7 -7 7 -8 9 -17 5 -21 -4 -4 0 -4 10 0 9 3 17 2 17 -3 0 -5 -6 -10 -12 -10
-7 0 -25 -3 -40 -6 -16 -3 -28 -2 -28 2 0 8 -33 7 -55 0 -5 -2 -10 1 -10 6 0
6 10 10 23 9 12 -1 22 3 22 8 0 5 -6 8 -12 5 -7 -2 -21 0 -32 5 -13 7 -16 7
-12 -1 7 -10 -7 -16 -29 -11 -32 7 -54 6 -49 -2 3 -5 12 -7 20 -4 7 3 16 0 20
-6 4 -7 3 -8 -4 -4 -7 4 -12 2 -12 -5 0 -8 -4 -8 -15 1 -12 10 -18 10 -30 0
-12 -10 -19 -10 -27 -2 -7 7 -19 7 -34 2 -20 -8 -22 -6 -19 13 4 21 4 21 -10
3 -8 -10 -12 -23 -8 -29 3 -6 1 -7 -6 -3 -6 4 -9 11 -6 16 6 10 -15 19 -32 12
-7 -2 -10 -9 -6 -15 3 -6 -5 -2 -19 9 -14 10 -24 22 -22 25 2 4 -3 12 -11 19
-11 9 -15 9 -15 1 0 -7 -4 -10 -8 -7 -4 2 -9 -4 -9 -15 -1 -15 3 -19 15 -14
13 3 18 -1 18 -15 0 -23 -5 -24 -29 -5 -11 7 -25 11 -32 9 -7 -3 -16 -1 -20 5
-3 6 -11 11 -16 11 -6 0 -7 -5 -3 -12 5 -7 3 -8 -6 -3 -7 4 -16 2 -22 -6 -7
-12 -9 -11 -7 1 3 35 -3 44 -13 20 -6 -14 -10 -29 -9 -35 2 -5 -1 -6 -5 -2
-12 12 -14 38 -2 31 7 -4 8 -2 4 4 -4 7 -14 12 -22 12 -9 0 -12 5 -8 12 4 7 3
8 -4 4 -6 -4 -9 -13 -6 -20 3 -7 -1 -16 -9 -19 -11 -4 -14 1 -12 18 1 14 -2
22 -6 19 -5 -3 -9 -11 -9 -19 0 -8 -5 -17 -12 -21 -7 -5 -8 -3 -3 6 5 9 4 11
-3 6 -6 -4 -22 -2 -34 5 -19 9 -21 9 -10 -2 16 -18 16 -34 -1 -20 -8 6 -18 7
-22 3 -5 -4 -5 -2 -1 5 3 6 2 14 -4 18 -5 3 -10 0 -10 -8 0 -7 -12 -19 -26
-25 -19 -9 -24 -9 -18 0 5 8 2 9 -9 5 -17 -6 -22 7 -18 41 2 9 -5 7 -17 -5
-10 -10 -17 -22 -14 -27 2 -4 8 -2 13 5 6 10 8 8 7 -7 -2 -26 -38 -26 -69 1
-12 11 -19 14 -14 6 6 -11 4 -13 -9 -8 -9 4 -19 1 -21 -6 -7 -15 -55 -19 -55
-3 0 6 -4 5 -9 -3 -5 -7 -14 -10 -20 -7 -6 4 -8 12 -5 18 4 7 2 8 -5 4 -6 -4
-9 -12 -6 -17 4 -5 2 -9 -4 -9 -5 0 -13 5 -16 10 -3 6 -11 10 -16 10 -6 0 -8
-4 -5 -8 3 -5 -5 -7 -17 -6 -12 1 -26 3 -30 3 -5 1 -6 5 -2 10 3 5 0 13 -6 17
-8 5 -9 3 -4 -6 6 -10 4 -12 -8 -7 -9 3 -19 1 -23 -5 -5 -7 -2 -8 6 -3 8 5 11
4 6 -3 -4 -6 -14 -8 -23 -5 -12 5 -14 3 -8 -7 5 -9 0 -7 -16 3 -30 22 -45 22
-28 0 12 -15 12 -16 -4 -10 -10 4 -27 7 -36 7 -11 0 -17 7 -16 20 1 20 15 41
15 24 0 -5 9 -10 19 -11 14 -1 18 3 14 13 -3 8 -8 14 -12 14 -4 0 -7 9 -8 20
-1 11 4 20 13 20 8 0 14 6 15 13 0 10 2 10 6 0 10 -26 21 -12 21 27 0 22 -4
40 -9 40 -6 0 -7 5 -4 10 4 6 12 7 18 4 9 -5 9 -4 0 6 -7 7 -17 9 -25 4 -7 -5
-17 -9 -23 -9 -5 0 -11 -21 -13 -47 -2 -27 -8 -48 -14 -48 -7 0 -7 -4 1 -13
11 -14 5 -27 -12 -27 -5 0 -7 29 -5 65 1 36 1 65 -2 65 -3 0 -4 36 -3 80 l1
80 -29 0 c-16 0 -29 -4 -29 -10 0 -5 4 -10 9 -10 5 0 9 -43 9 -95 0 -52 -4
-95 -9 -95 -5 0 -9 -15 -9 -34 0 -30 2 -33 25 -28 14 2 25 0 25 -6 0 -12 -40
-38 -52 -34 -3 1 -5 -6 -3 -16 1 -9 -3 -21 -9 -25 -11 -9 -9 -9 42 7 13 4 22
3 22 -3 0 -5 -9 -13 -21 -16 -24 -8 -77 3 -63 13 5 4 10 14 12 22 1 10 -2 9
-13 -4 -8 -11 -15 -23 -15 -26 0 -4 -16 -7 -36 -8 -30 -1 -35 1 -30 15 6 16 6
16 -11 0 -18 -15 -54 -18 -53 -4 0 4 0 12 0 19 0 6 9 3 20 -7 11 -10 20 -14
21 -9 0 5 2 17 4 27 2 9 -1 15 -6 11 -5 -3 -6 -10 -3 -16 4 -6 1 -9 -6 -6 -16
5 -22 38 -10 53 6 8 5 12 -4 12 -8 0 -13 -11 -12 -25 1 -14 -5 -27 -13 -30 -8
-3 -11 0 -8 5 3 5 -3 9 -13 10 -11 1 -22 -2 -25 -8 -4 -5 2 -6 12 -2 14 5 16
3 6 -7 -7 -7 -24 -14 -39 -16 -24 -3 -25 -1 -11 14 10 11 12 24 7 37 -13 32
-11 38 7 24 15 -11 14 -10 -1 9 -20 23 -43 31 -30 10 4 -7 3 -8 -5 -4 -18 12
-2 28 21 20 13 -4 18 -2 14 4 -3 6 -1 12 6 14 7 3 -2 11 -20 19 -35 15 -44 30
-13 22 17 -4 19 -2 12 23 -5 19 -14 29 -27 29 -17 0 -19 -8 -21 -70 -1 -61 1
-72 20 -87 l22 -18 -31 0 c-20 0 -31 -5 -31 -15 0 -11 8 -13 30 -10 21 4 28 2
25 -7 -3 -7 -15 -14 -27 -14 -12 -1 -24 -4 -28 -8 -3 -3 8 -4 26 -2 17 2 29 1
26 -3 -4 -3 -21 -6 -39 -7 -28 -1 -32 3 -28 18 5 20 -13 25 -24 6 -5 -7 -3 -8
6 -3 8 5 11 4 6 -3 -9 -14 -38 -3 -30 12 3 6 0 4 -8 -4 -7 -8 -19 -16 -27 -18
-12 -3 -12 0 -1 12 19 24 4 19 -19 -5 -15 -16 -26 -19 -50 -14 -17 4 -31 12
-31 18 -1 8 -5 6 -13 -3 -15 -18 -37 -24 -37 -10 0 7 -6 7 -19 1 -10 -6 -21
-8 -24 -5 -3 3 -12 2 -19 -2 -18 -12 -78 -12 -70 0 3 5 -2 7 -11 3 -9 -3 -17
-2 -19 3 -5 14 -32 16 -34 3 -1 -7 -2 -16 -3 -20 0 -4 -7 1 -14 12 -10 13 -16
15 -21 6 -4 -6 -11 -9 -16 -6 -5 3 -18 1 -28 -4 -14 -7 -19 -6 -19 4 0 7 7 11
16 8 13 -4 13 -3 2 5 -8 6 -20 8 -26 5 -7 -2 -19 3 -27 11 -14 13 -16 12 -16
-10 0 -19 3 -22 13 -14 10 8 15 8 21 -1 4 -7 3 -9 -4 -5 -5 3 -12 0 -15 -6 -3
-10 -7 -10 -18 -2 -8 6 -24 10 -36 9 -12 -1 -20 2 -17 7 8 12 -10 10 -23 -3
-13 -13 -36 -3 -28 12 10 15 -7 10 -29 -8 -15 -13 -17 -14 -9 -2 10 12 9 20
-3 37 -9 13 -20 19 -27 15 -7 -4 -6 1 2 10 12 15 12 17 -3 11 -9 -3 -16 -1
-16 5 0 6 5 11 12 11 6 0 4 6 -7 14 -12 8 -16 20 -12 35 3 11 2 21 -3 21 -12
0 -20 88 -10 115 7 18 6 25 -3 25 -8 0 -8 3 -2 8 12 8 13 27 3 37 -4 4 -3 17
2 30 6 15 4 27 -3 35 -9 10 -9 11 3 5 13 -8 13 -7 1 8 -10 12 -10 17 -1 17 7
0 3 10 -8 25 -16 20 -19 32 -12 56 5 16 5 27 0 24 -4 -3 -10 1 -13 9 -3 8 0
16 6 19 16 5 38 -3 33 -12 -3 -4 68 -7 157 -7 122 1 161 -2 160 -11 -2 -7 4
-10 13 -6 13 5 13 7 2 15 -8 5 3 8 32 8 25 0 153 2 285 5 580 14 650 14 630
-1 -10 -8 -14 -14 -8 -14 6 0 16 7 23 15 15 18 61 20 79 2 11 -9 13 -9 7 1 -5
8 1 12 19 12 14 0 24 -4 20 -9 -3 -5 -1 -13 5 -16 6 -4 9 -1 8 7 -4 19 229 21
236 2 3 -8 11 -14 17 -14 8 0 8 4 -1 15 -10 13 -9 15 9 15 14 0 20 -4 15 -11
-4 -7 1 -7 16 1 18 10 24 9 31 -1 5 -8 9 -9 9 -3 0 7 27 12 68 13 37 1 78 3
92 4 14 2 33 0 42 -5 9 -4 19 -5 21 0 3 4 40 5 82 2 42 -3 82 -2 90 3 8 4 16
3 20 -3 4 -7 13 -7 26 0 13 8 19 7 19 0 0 -6 3 -9 8 -7 11 8 560 23 587 17 6
-1 12 -2 15 -1 24 8 240 4 240 -4 0 -5 4 -5 8 2 5 8 80 11 284 9 176 -1 275 2
271 8 -4 5 1 7 11 3 9 -4 15 -3 12 2 -3 5 13 9 35 9 23 1 44 3 47 6 3 3 -9 6
-27 6 -19 0 -30 4 -26 10 9 15 -7 12 -29 -5 -11 -8 -29 -15 -40 -14 -18 1 -18
2 3 8 14 4 27 13 29 20 3 8 0 11 -5 8 -5 -3 -10 14 -10 41 0 29 1 36 4 17 8
-54 22 -49 20 8 -1 46 -3 53 -14 39 -10 -15 -11 -14 -7 8 3 14 8 32 11 40 4 8
5 19 4 25 -6 23 -3 154 3 164 4 6 3 19 -3 28 -5 10 -10 36 -12 58 -1 22 -6 45
-9 50 -10 14 8 75 22 75 7 0 3 7 -8 15 -18 14 -18 14 9 15 15 0 27 -4 27 -9 0
-13 82 -5 90 9 4 7 11 10 16 8 4 -1 17 24 28 57 15 46 20 89 20 180 1 150 -11
181 -76 189 -86 11 -184 19 -225 18 -24 -1 -43 3 -43 8 0 6 3 9 8 9 26 -4 72
2 68 10 -3 4 -6 85 -6 179 -1 144 1 174 15 196 25 38 66 35 115 -11z m-1680
-43 c0 -5 -2 -10 -4 -10 -3 0 -8 5 -11 10 -3 6 -1 10 4 10 6 0 11 -4 11 -10z
m1400 -193 c0 -47 31 -129 51 -134 48 -13 10 -20 -83 -16 -97 5 -127 11 -102
20 7 2 7 29 2 84 -9 80 -5 106 11 80 5 -7 14 -10 20 -7 6 4 11 0 11 -9 0 -9
-4 -13 -10 -10 -5 3 -10 1 -10 -4 0 -14 17 -14 25 -1 3 5 12 7 19 4 9 -4 16 5
21 25 6 29 7 29 26 10 10 -10 19 -29 19 -42z m-1955 -67 c3 -6 -1 -7 -9 -4
-18 7 -21 14 -7 14 6 0 13 -4 16 -10z m-1210 -10 c3 -5 1 -10 -4 -10 -6 0 -11
5 -11 10 0 6 2 10 4 10 3 0 8 -4 11 -10z m363 3 c-10 -2 -28 -2 -40 0 -13 2
-5 4 17 4 22 1 32 -1 23 -4z m-359 -78 c-1 -30 -6 -55 -12 -55 -5 0 -7 10 -3
23 3 12 6 37 6 55 0 17 2 32 5 32 3 0 5 -25 4 -55z m1604 48 c-7 -2 -19 -2
-25 0 -7 3 -2 5 12 5 14 0 19 -2 13 -5z m85 0 c-10 -2 -26 -2 -35 0 -10 3 -2
5 17 5 19 0 27 -2 18 -5z m645 -20 c-7 -2 -19 -2 -25 0 -7 3 -2 5 12 5 14 0
19 -2 13 -5z m-1726 -25 c-3 -8 -6 -5 -6 6 -1 11 2 17 5 13 3 -3 4 -12 1 -19z
m2016 15 c-7 -2 -21 -2 -30 0 -10 3 -4 5 12 5 17 0 24 -2 18 -5z m60 0 c-7 -2
-19 -2 -25 0 -7 3 -2 5 12 5 14 0 19 -2 13 -5z m245 -10 c-10 -2 -26 -2 -35 0
-10 3 -2 5 17 5 19 0 27 -2 18 -5z m70 0 c-10 -2 -26 -2 -35 0 -10 3 -2 5 17
5 19 0 27 -2 18 -5z m-2338 -73 c27 -14 18 -44 -13 -48 -17 -2 -27 -9 -27 -20
0 -12 3 -13 12 -4 7 7 19 12 27 12 11 0 8 -5 -7 -16 -30 -21 -57 -12 -43 15 6
10 8 21 5 23 -2 3 7 3 21 1 18 -4 25 -1 25 10 0 21 -19 32 -33 18 -17 -17 -31
-13 -17 4 15 18 25 19 50 5z m-661 -17 c1 -10 3 -87 7 -170 4 -105 3 -153 -5
-153 -6 0 -8 7 -5 15 4 8 1 15 -5 15 -8 0 -10 22 -6 78 7 85 6 182 -1 193 -4
7 5 39 11 39 2 0 4 -8 4 -17z m248 1 c-3 -3 -12 -4 -19 -1 -8 3 -5 6 6 6 11 1
17 -2 13 -5z m293 -15 c0 -5 -7 -9 -15 -9 -8 0 -15 -4 -15 -10 0 -5 7 -10 15
-10 8 0 15 -4 15 -10 0 -5 -16 -9 -35 -7 -34 2 -51 17 -20 17 8 0 15 5 15 10
0 6 -7 10 -15 10 -31 0 -13 15 20 17 19 1 35 -2 35 -8z m-305 -9 c-3 -5 -12
-10 -18 -10 -7 0 -6 4 3 10 19 12 23 12 15 0z m35 0 c0 -5 -2 -10 -4 -10 -3 0
-8 5 -11 10 -3 6 -1 10 4 10 6 0 11 -4 11 -10z m100 -10 c0 -5 -2 -10 -4 -10
-3 0 -8 5 -11 10 -3 6 -1 10 4 10 6 0 11 -4 11 -10z m48 -17 c3 -23 -25 -40
-41 -24 -13 13 0 31 18 24 17 -6 21 12 5 20 -6 3 -5 4 2 3 7 -1 14 -12 16 -23z
m3009 14 c-4 -10 2 -13 19 -9 27 5 32 -12 7 -26 -15 -9 -14 -11 4 -21 17 -8
24 -7 34 6 12 14 14 12 20 -13 3 -16 4 -46 1 -67 -4 -36 -5 -37 -22 -22 -12
11 -20 13 -25 6 -3 -6 -11 -11 -16 -11 -6 0 -8 4 -5 9 8 12 -3 41 -15 41 -13
0 -11 -37 2 -45 6 -4 8 -13 6 -19 -3 -7 -1 -19 5 -27 8 -11 9 -11 4 3 -6 20 9
34 19 18 10 -17 -13 -39 -35 -33 -11 3 -20 12 -20 19 0 8 -4 14 -10 14 -5 0
-6 -8 -3 -17 5 -12 2 -15 -10 -10 -10 4 -17 2 -17 -5 0 -6 -11 2 -25 18 -14
16 -25 34 -25 40 0 6 -8 18 -17 25 -10 7 -15 9 -11 5 4 -5 0 -15 -10 -22 -14
-10 -18 -10 -24 4 -5 12 -7 9 -7 -10 -1 -29 -15 -38 -24 -15 -4 8 -6 7 -6 -3
-1 -9 -10 -16 -21 -17 -14 -1 -20 5 -21 20 0 12 -3 16 -6 10 -9 -23 -20 -14
-15 12 2 14 8 22 13 19 13 -8 11 10 -3 25 -11 10 -10 11 3 6 10 -4 20 -1 24 4
3 6 11 9 16 6 5 -4 9 -1 9 5 0 6 4 9 9 6 5 -3 11 1 15 9 3 8 13 14 23 14 17
-1 17 -2 1 -6 -19 -5 -26 -43 -8 -43 5 0 7 6 4 13 -2 7 4 13 16 14 11 1 20 -3
20 -8 0 -6 -4 -7 -10 -4 -5 3 -10 0 -10 -8 0 -22 27 -16 39 10 7 15 7 23 0 23
-5 0 -2 10 7 23 24 31 58 33 72 4 10 -21 11 -20 11 11 1 17 6 32 12 32 6 0 9
-6 6 -13z m-3240 -34 c-3 -10 -5 -4 -5 12 0 17 2 24 5 18 2 -7 2 -21 0 -30z
m3383 -66 c0 -51 -7 -114 -14 -142 l-14 -50 6 70 c4 39 6 105 5 148 -2 48 1
75 7 72 6 -4 10 -48 10 -98z m-3227 72 c-8 -8 -13 -7 -18 2 -5 8 -4 10 3 5 7
-4 12 -2 12 5 0 7 3 9 7 6 4 -4 2 -12 -4 -18z m-96 -14 c-4 -8 -17 -14 -29
-14 l-23 2 23 4 c12 2 22 12 22 20 0 9 3 14 6 10 4 -3 4 -13 1 -22z m433 11
c0 -3 -4 -8 -10 -11 -5 -3 -10 -1 -10 4 0 6 5 11 10 11 6 0 10 -2 10 -4z
m-166 -24 c23 5 26 2 26 -23 0 -16 -7 -32 -17 -38 -17 -10 -17 -10 0 -11 9 0
17 -4 17 -8 0 -4 -16 -6 -36 -4 -26 3 -34 9 -32 21 2 9 13 16 28 16 15 0 26 6
28 18 3 13 -3 17 -27 17 -23 0 -31 5 -31 18 0 13 2 14 9 3 5 -8 19 -12 35 -9z
m-169 -2 c-3 -5 -11 -10 -16 -10 -6 0 -7 5 -4 10 3 6 11 10 16 10 6 0 7 -4 4
-10z m275 0 c0 -5 -2 -10 -4 -10 -3 0 -8 5 -11 10 -3 6 -1 10 4 10 6 0 11 -4
11 -10z m27 -33 c-18 -18 -36 -31 -41 -29 -10 6 44 61 61 61 6 1 -3 -14 -20
-32z m-453 2 c-3 -5 -10 -7 -15 -3 -5 3 -7 10 -3 15 3 5 10 7 15 3 5 -3 7 -10
3 -15z m56 -14 c0 -33 -2 -35 -35 -35 -19 0 -35 4 -35 8 0 5 14 7 30 4 29 -4
41 10 20 23 -6 4 -5 11 3 20 17 20 17 19 17 -20z m-1582 -41 c15 -60 12 -99
-8 -99 -8 0 -18 -4 -22 -10 -16 -22 -31 106 -17 143 14 35 32 21 47 -34z
m2012 36 c0 -5 -7 -7 -15 -4 -8 4 -15 8 -15 10 0 2 7 4 15 4 8 0 15 -4 15 -10z
m2440 -10 c0 -5 -5 -10 -11 -10 -5 0 -7 5 -4 10 3 6 8 10 11 10 2 0 4 -4 4
-10z m-2465 -17 c-11 -3 -26 -10 -32 -15 -9 -7 -13 -7 -13 0 0 13 18 21 45 20
l20 0 -20 -5z m-414 -26 c-7 -7 -7 -15 1 -24 8 -11 7 -12 -6 -7 -9 3 -16 10
-16 16 0 5 -9 7 -20 3 -14 -4 -18 -2 -15 7 3 7 19 13 36 14 21 1 27 -2 20 -9z
m275 -11 c-21 -9 -25 -15 -15 -19 9 -5 8 -6 -4 -4 -26 3 -23 21 5 29 38 10 45
7 14 -6z m164 7 c0 -5 -4 -14 -9 -22 -10 -15 -61 -24 -61 -10 0 5 10 8 23 6
16 -1 22 3 21 16 -1 9 4 17 12 17 8 0 14 -3 14 -7z m-493 -60 c-3 -10 -5 -4
-5 12 0 17 2 24 5 18 2 -7 2 -21 0 -30z m353 17 c0 -5 -2 -10 -4 -10 -3 0 -8
5 -11 10 -3 6 -1 10 4 10 6 0 11 -4 11 -10z m134 -14 c-3 -9 -13 -12 -27 -8
-21 6 -21 6 3 13 14 4 26 7 27 8 1 1 0 -5 -3 -13z m-54 0 c0 -3 -4 -8 -10 -11
-5 -3 -10 -1 -10 4 0 6 5 11 10 11 6 0 10 -2 10 -4z m3775 -37 c3 -10 8 -71 9
-135 3 -104 1 -119 -16 -136 -49 -49 -122 40 -105 130 9 48 45 136 61 147 9 7
13 15 10 18 -3 3 3 3 15 0 11 -3 23 -14 26 -24z m-1208 -225 c-3 -3 -12 -4
-19 -1 -8 3 -5 6 6 6 11 1 17 -2 13 -5z m10 -40 c-3 -3 -12 -4 -19 -1 -8 3 -5
6 6 6 11 1 17 -2 13 -5z m-7 -24 c0 -5 -2 -10 -4 -10 -3 0 -8 5 -11 10 -3 6
-1 10 4 10 6 0 11 -4 11 -10z m115 -48 c-6 -7 -65 9 -65 17 0 5 15 3 34 -3 19
-6 33 -12 31 -14z m-2449 -7 c1 -8 -2 -17 -7 -21 -5 -3 -8 6 -7 20 2 26 10 26
14 1z m989 -23 c-3 -3 -11 0 -18 7 -9 10 -8 11 6 5 10 -3 15 -9 12 -12z m92 3
c0 -8 -4 -12 -9 -9 -5 3 -6 10 -3 15 9 13 12 11 12 -6z m1371 0 c-10 -8 -68
-13 -68 -5 0 10 39 18 58 12 7 -3 12 -6 10 -7z m-3091 -42 c-3 -10 -5 -2 -5
17 0 19 2 27 5 18 2 -10 2 -26 0 -35z m466 40 c-7 -2 -19 -2 -25 0 -7 3 -2 5
12 5 14 0 19 -2 13 -5z m1282 -3 c-3 -5 -1 -10 6 -10 7 0 10 -3 6 -6 -9 -9
-28 6 -22 17 4 5 8 9 11 9 3 0 2 -4 -1 -10z m-220 -10 c3 -6 -1 -7 -9 -4 -18
7 -21 14 -7 14 6 0 13 -4 16 -10z m82 -22 c-3 -8 -6 -5 -6 6 -1 11 2 17 5 13
3 -3 4 -12 1 -19z m1393 12 c0 -5 -4 -10 -10 -10 -5 0 -10 5 -10 10 0 6 5 10
10 10 6 0 10 -4 10 -10z m-2493 -16 c-3 -3 -12 -4 -19 -1 -8 3 -5 6 6 6 11 1
17 -2 13 -5z m2463 2 c0 -3 -4 -8 -10 -11 -5 -3 -10 -1 -10 4 0 6 5 11 10 11
6 0 10 -2 10 -4z m20 -37 c12 -8 10 -9 -7 -4 -25 7 -30 -4 -10 -24 10 -10 9
-11 -5 -6 -18 7 -24 26 -11 38 9 9 15 9 33 -4z m75 -59 c3 -6 -1 -7 -9 -4 -18
7 -21 14 -7 14 6 0 13 -4 16 -10z m181 -117 c-3 -4 4 -13 16 -20 22 -11 22
-12 3 -13 l-20 -1 20 -9 c17 -7 17 -9 3 -9 -19 -1 -42 34 -33 49 3 6 9 10 12
10 4 0 3 -3 -1 -7z m-2459 -539 c-3 -3 -12 -4 -19 -1 -8 3 -5 6 6 6 11 1 17
-2 13 -5z m2633 -18 c0 -3 -4 -8 -10 -11 -5 -3 -10 -1 -10 4 0 6 5 11 10 11 6
0 10 -2 10 -4z m-200 -76 c-9 -6 -9 -9 1 -13 10 -4 9 -6 -3 -6 -20 -1 -21 0
-12 23 3 9 11 13 16 10 6 -4 6 -9 -2 -14z m-645 -10 c10 -11 16 -20 13 -20 -3
0 -13 9 -23 20 -10 11 -16 20 -13 20 3 0 13 -9 23 -20z m502 5 c0 -8 -4 -12
-9 -9 -5 3 -6 10 -3 15 9 13 12 11 12 -6z m-2361 -15 c0 -12 -5 -19 -13 -16
-7 3 -15 1 -18 -4 -4 -6 -12 -10 -18 -10 -7 0 2 11 18 25 17 13 30 24 30 25 1
0 1 -9 1 -20z m894 16 c0 -2 -7 -7 -16 -10 -8 -3 -12 -2 -9 4 6 10 25 14 25 6z
m640 -11 c11 -13 10 -14 -5 -9 -11 5 -16 3 -12 -2 3 -6 -10 -10 -29 -11 -19 0
-34 3 -34 8 0 13 18 20 25 9 7 -12 26 -14 24 -2 -4 26 12 30 31 7z m37 8 c-4
-3 -1 -13 6 -22 11 -14 10 -14 -5 -2 -16 12 -16 31 -1 31 4 0 3 -3 0 -7z m48
-3 c3 -5 2 -10 -4 -10 -5 0 -13 5 -16 10 -3 6 -2 10 4 10 5 0 13 -4 16 -10z
m-187 -17 c-6 -7 -14 -13 -19 -13 -5 0 -9 6 -9 13 0 7 9 13 19 13 15 0 17 -3
9 -13z m-1036 -28 c3 0 9 -3 13 -7 4 -3 -1 -5 -12 -3 -10 2 -21 4 -25 4 -5 1
-8 6 -8 12 0 6 5 7 13 2 6 -4 15 -8 19 -8z m-648 -8 c-3 -8 -21 -14 -40 -15
-22 -1 -32 2 -28 9 3 6 12 8 20 5 7 -3 16 -1 19 4 9 15 35 12 29 -3z m-556
-22 c-3 -3 -9 2 -12 12 -6 14 -5 15 5 6 7 -7 10 -15 7 -18z m-494 -48 c-13
-15 -21 -34 -18 -42 4 -8 1 -15 -5 -15 -6 0 -11 -17 -11 -40 0 -22 -4 -40 -9
-40 -8 0 -25 -60 -18 -66 2 -2 16 3 31 11 33 17 61 20 31 3 -11 -6 -24 -17
-28 -25 -4 -7 -15 -13 -23 -13 -18 0 -46 25 -37 33 3 3 0 21 -6 38 -9 25 -8
34 1 41 7 4 10 8 6 8 -4 0 -3 11 2 25 10 27 2 33 -18 13 -7 -7 -12 -8 -12 -2
0 6 14 23 30 39 17 16 30 36 30 45 0 9 15 23 33 32 29 14 33 14 38 -1 4 -9 -3
-27 -17 -44z m1339 56 c-7 -2 -19 -2 -25 0 -7 3 -2 5 12 5 14 0 19 -2 13 -5z
m2342 -16 c16 -5 15 -5 -4 -4 -14 1 -26 9 -28 17 -3 10 -2 11 4 4 4 -7 17 -14
28 -17z m45 13 c0 -5 -2 -10 -4 -10 -3 0 -8 5 -11 10 -3 6 -1 10 4 10 6 0 11
-4 11 -10z m-344 -12 c3 -4 -1 -5 -10 -4 -8 1 -18 5 -22 8 -3 4 1 5 10 4 8 -1
18 -5 22 -8z m129 0 c4 -3 -14 -6 -39 -6 -25 0 -46 3 -46 8 0 10 75 8 85 -2z
m40 2 c3 -5 -1 -10 -10 -10 -9 0 -13 5 -10 10 3 6 8 10 10 10 2 0 7 -4 10 -10z
m-1292 -7 c-7 -2 -19 -2 -25 0 -7 3 -2 5 12 5 14 0 19 -2 13 -5z m84 1 c-3 -3
-12 -4 -19 -1 -8 3 -5 6 6 6 11 1 17 -2 13 -5z m416 -1 c-13 -2 -35 -2 -50 0
-16 2 -5 4 22 4 28 0 40 -2 28 -4z m60 0 c-7 -2 -19 -2 -25 0 -7 3 -2 5 12 5
14 0 19 -2 13 -5z m44 1 c-3 -3 -12 -4 -19 -1 -8 3 -5 6 6 6 11 1 17 -2 13 -5z
m211 -1 c-10 -2 -26 -2 -35 0 -10 3 -2 5 17 5 19 0 27 -2 18 -5z m1126 -107
c16 -33 16 -79 0 -168 -6 -33 -4 -38 12 -38 18 -1 18 -2 2 -14 -11 -8 -18 -29
-19 -57 -2 -24 -11 -66 -21 -94 -10 -27 -19 -66 -20 -87 -3 -33 -7 -38 -28
-40 -44 -2 -48 -3 -56 -10 -4 -4 -13 4 -21 18 -16 33 -16 34 2 34 18 0 18 5 5
30 -8 15 -6 17 10 13 16 -4 20 0 20 18 0 13 5 31 10 39 7 11 10 7 10 -18 0
-19 -10 -47 -21 -64 -17 -24 -19 -32 -9 -38 18 -11 51 50 61 113 4 26 15 54
23 62 12 12 14 30 9 83 -3 37 -11 73 -17 81 -9 12 -8 13 6 9 16 -7 20 13 5 28
-3 3 1 13 9 22 11 10 13 23 8 41 -10 37 -12 81 -4 76 4 -3 15 -20 24 -39z
m-4174 -50 c0 -3 -4 -8 -10 -11 -5 -3 -10 -1 -10 4 0 6 5 11 10 11 6 0 10 -2
10 -4z m-130 -76 c0 -5 -5 -10 -11 -10 -5 0 -7 5 -4 10 3 6 8 10 11 10 2 0 4
-4 4 -10z m1027 4 c-3 -3 -12 -4 -19 -1 -8 3 -5 6 6 6 11 1 17 -2 13 -5z
m2864 -64 c5 0 9 -4 9 -10 0 -5 -7 -7 -15 -4 -8 4 -14 16 -14 28 1 16 2 17 6
4 2 -10 9 -18 14 -18z m-3807 5 c3 -8 1 -15 -3 -15 -5 0 -11 7 -15 15 -3 8 -1
15 3 15 5 0 11 -7 15 -15z m636 1 c0 -3 -4 -8 -10 -11 -5 -3 -10 -1 -10 4 0 6
5 11 10 11 6 0 10 -2 10 -4z m-29 -73 c-12 -20 -14 -14 -5 12 4 9 9 14 11 11
3 -2 0 -13 -6 -23z m-605 -10 c-10 -10 -19 5 -10 18 6 11 8 11 12 0 2 -7 1
-15 -2 -18z m-97 -39 c6 4 11 3 11 -3 0 -6 7 -8 15 -5 12 5 14 0 10 -22 -10
-58 -12 -114 -3 -114 4 0 8 -4 8 -10 0 -16 -27 -11 -34 6 -3 9 -6 34 -6 56 0
22 -7 46 -15 54 -8 9 -15 25 -15 37 0 17 3 19 9 8 5 -7 14 -10 20 -7z m1333
-119 c-2 -14 -6 -25 -8 -25 -2 0 -4 11 -4 25 0 14 4 25 9 25 4 0 6 -11 3 -25z
m2788 -2 c0 15 3 16 22 6 l23 -12 -22 -10 c-28 -12 -53 -3 -53 20 0 15 2 15
15 -3 13 -17 14 -18 15 -1z m-4138 -66 c-12 -6 -25 -7 -29 -3 -11 10 18 25 35
18 13 -4 11 -8 -6 -15z m111 16 c2 -5 -6 -23 -18 -40 l-23 -33 -4 25 c-3 13
-1 22 3 19 5 -3 9 4 9 15 0 20 24 30 33 14z m-78 -53 c-10 -11 -20 -18 -23
-15 -7 6 18 35 31 35 5 0 2 -9 -8 -20z"/>
<path d="M1572 3760 c0 -14 2 -19 5 -12 2 6 2 18 0 25 -3 6 -5 1 -5 -13z"/>
<path d="M2760 2296 c0 -2 8 -10 18 -17 15 -13 16 -12 3 4 -13 16 -21 21 -21
13z"/>
<path d="M3046 2283 c-6 -14 -5 -15 5 -6 7 7 10 15 7 18 -3 3 -9 -2 -12 -12z"/>
<path d="M2145 2280 c-7 -12 -8 -12 32 -15 18 -1 30 2 27 7 -3 4 -10 6 -15 2
-5 -3 -16 -1 -24 6 -9 7 -15 8 -20 0z"/>
<path d="M2325 2270 c10 -11 20 -20 23 -20 3 0 -3 9 -13 20 -10 11 -20 20 -23
20 -3 0 3 -9 13 -20z"/>
<path d="M2549 2273 c-13 -16 -12 -17 4 -4 9 7 17 15 17 17 0 8 -8 3 -21 -13z"/>
<path d="M3443 2265 c0 -8 4 -12 9 -9 5 3 6 10 3 15 -9 13 -12 11 -12 -6z"/>
<path d="M2763 2257 c0 -7 9 -13 19 -13 10 0 18 1 18 3 0 1 -8 7 -18 12 -13 7
-19 6 -19 -2z"/>
<path d="M1654 2215 c0 -23 4 -35 13 -35 17 0 17 -16 -1 -23 -18 -7 -26 1 -26
25 0 10 -4 18 -10 18 -17 0 -11 -48 8 -59 16 -10 16 -10 0 -11 -10 0 -18 -5
-18 -11 0 -6 7 -9 15 -5 8 3 15 1 15 -3 0 -5 -7 -11 -15 -15 -26 -9 -17 -25
18 -29 l32 -4 -32 -1 c-32 -2 -33 -3 -33 -48 0 -39 3 -45 17 -40 16 6 16 6 0
-12 -21 -23 -22 -51 -2 -58 14 -6 13 -8 -2 -20 -17 -12 -17 -15 -3 -41 9 -15
21 -28 27 -28 6 0 15 -4 20 -8 4 -5 -5 -7 -21 -5 -24 2 -30 -1 -31 -20 -1 -13
2 -25 7 -28 5 -3 7 0 6 8 -2 8 8 14 26 16 20 3 26 0 21 -9 -5 -8 -4 -10 3 -5
7 4 12 18 12 32 0 17 4 23 12 18 7 -5 8 -3 4 5 -5 7 -14 10 -21 7 -11 -4 -11
2 1 30 8 19 11 34 7 33 -19 -3 -36 2 -29 9 4 4 12 7 17 7 5 0 9 3 9 8 0 4 0
11 0 17 0 5 -10 18 -21 29 -21 19 -21 20 -1 14 16 -4 20 -1 17 14 -2 10 -4 37
-4 61 -1 40 -3 43 -23 37 l-23 -6 23 20 c26 23 28 31 5 31 -15 0 -15 1 2 13
12 10 16 22 13 40 -3 15 -1 27 5 27 5 0 0 9 -13 20 -13 11 -23 20 -24 20 -1 0
-1 -16 -2 -35z m16 -190 c-10 -12 -16 -13 -26 -4 -20 16 -18 19 12 19 22 0 25
-2 14 -15z m6 -86 c7 -12 -15 -31 -28 -23 -4 3 -8 12 -8 20 0 17 26 19 36 3z
m-1 -69 c11 -17 -5 -32 -21 -19 -7 6 -11 15 -8 20 7 12 21 11 29 -1z"/>
<path d="M2102 2238 c2 -7 17 -16 33 -19 l30 -6 -32 -2 c-31 -1 -49 -21 -19
-21 8 0 14 -6 13 -12 0 -7 1 -32 1 -55 2 -34 5 -41 18 -36 9 3 4 -6 -11 -23
-28 -30 -30 -61 -3 -77 31 -20 46 7 47 84 1 59 -2 70 -14 65 -8 -3 -15 -2 -15
3 0 12 48 20 54 9 2 -5 4 -4 3 3 -2 6 -6 10 -11 9 -15 -3 -25 23 -19 52 5 26
3 28 -23 26 -16 -1 -35 2 -42 6 -8 5 -11 3 -10 -6z m58 -68 c0 -5 -5 -10 -11
-10 -5 0 -7 5 -4 10 3 6 8 10 11 10 2 0 4 -4 4 -10z m0 -60 c0 -5 -2 -10 -4
-10 -3 0 -8 5 -11 10 -3 6 -1 10 4 10 6 0 11 -4 11 -10z m0 -86 c0 -14 -6 -24
-14 -24 -21 0 -25 11 -15 38 11 28 29 20 29 -14z"/>
<path d="M2453 2237 c0 -7 9 -13 19 -13 10 0 18 1 18 3 0 1 -8 7 -18 12 -13 7
-19 6 -19 -2z"/>
<path d="M1410 2213 c0 -7 7 -13 15 -13 8 0 15 -4 15 -10 0 -5 -7 -10 -15 -10
-27 0 -15 -20 13 -21 15 0 21 -3 15 -6 -21 -8 -16 -33 5 -26 13 5 15 3 5 -7
-15 -17 -47 -5 -39 15 3 8 1 15 -3 15 -15 0 -22 -32 -10 -46 9 -11 8 -14 -1
-14 -6 0 -10 -5 -8 -12 3 -7 15 -12 29 -13 13 0 25 -4 26 -10 1 -5 -9 -9 -23
-8 -15 1 -24 -4 -24 -13 0 -8 6 -14 13 -14 8 0 8 -3 1 -8 -33 -22 -12 -79 26
-69 11 3 18 1 14 -4 -3 -5 -16 -9 -29 -9 -27 0 -33 -11 -27 -52 3 -20 9 -27
18 -24 8 3 14 1 14 -4 0 -6 -7 -10 -16 -10 -13 0 -15 -8 -11 -41 3 -23 11 -45
18 -50 12 -7 12 -9 0 -9 -8 0 -11 -3 -8 -6 12 -12 38 18 27 31 -7 8 -5 12 5
12 8 0 12 -4 9 -9 -3 -4 0 -8 6 -8 6 0 8 -4 5 -10 -3 -5 -1 -10 4 -10 21 0 26
5 23 23 -2 10 5 28 15 40 14 17 14 19 1 9 -14 -12 -16 -9 -13 23 3 25 0 33 -8
28 -7 -4 -6 1 2 10 8 11 9 17 3 17 -6 0 -9 7 -5 16 5 13 1 15 -18 9 -16 -4
-19 -3 -11 3 19 13 24 82 6 89 -8 3 -14 9 -14 15 0 5 4 7 9 4 4 -3 9 16 9 42
1 26 2 72 4 103 l3 56 -37 -1 c-24 0 -38 -6 -38 -13z m60 -17 c0 -3 -4 -8 -10
-11 -5 -3 -10 -1 -10 4 0 6 5 11 10 11 6 0 10 -2 10 -4z m0 -216 c0 -12 -29
-20 -35 -10 -9 15 4 30 20 23 8 -3 15 -9 15 -13z m-7 -97 c-7 -2 -19 -2 -25 0
-7 3 -2 5 12 5 14 0 19 -2 13 -5z m37 -43 c0 -5 -2 -10 -4 -10 -3 0 -8 5 -11
10 -3 6 -1 10 4 10 6 0 11 -4 11 -10z m-30 -28 c0 -4 -9 -8 -20 -9 -11 -1 -18
2 -15 8 7 11 35 12 35 1z"/>
<path d="M2441 2205 c27 -31 33 -61 16 -82 -7 -10 -2 -13 22 -13 21 0 31 5 31
15 0 8 -4 15 -10 15 -5 0 -10 4 -10 9 0 5 10 7 22 3 14 -3 19 -2 14 6 -4 7
-14 12 -21 12 -8 0 -31 14 -52 32 -38 32 -38 32 -12 3z"/>
<path d="M3220 2226 c0 -2 8 -10 18 -17 15 -13 16 -12 3 4 -13 16 -21 21 -21
13z"/>
<path d="M3529 2206 c7 -8 8 -16 4 -18 -4 -3 -3 -4 3 -2 6 1 18 -3 25 -9 8 -7
3 0 -10 16 -25 27 -43 39 -22 13z"/>
<path d="M2945 2200 c-3 -6 1 -7 9 -4 18 7 21 14 7 14 -6 0 -13 -4 -16 -10z"/>
<path d="M3130 2196 c0 -2 8 -10 18 -17 15 -13 16 -12 3 4 -13 16 -21 21 -21
13z"/>
<path d="M2935 2169 c-4 -6 -5 -12 -2 -15 2 -3 7 2 10 11 7 17 1 20 -8 4z"/>
<path d="M3315 2170 c3 -6 1 -10 -6 -10 -7 0 -10 -3 -6 -6 3 -3 13 -2 22 4 16
8 16 9 1 15 -10 4 -15 3 -11 -3z"/>
<path d="M3130 2166 c0 -2 8 -10 18 -17 15 -13 16 -12 3 4 -13 16 -21 21 -21
13z"/>
<path d="M3366 2157 c3 -10 9 -15 12 -12 3 3 0 11 -7 18 -10 9 -11 8 -5 -6z"/>
<path d="M2540 2150 c0 -5 5 -10 11 -10 8 0 8 -5 -1 -15 -11 -13 -8 -15 21
-14 26 0 30 2 15 8 -14 5 -16 10 -8 15 20 12 13 26 -13 26 -14 0 -25 -4 -25
-10z"/>
<path d="M2396 2138 c3 -5 10 -6 15 -3 13 9 11 12 -6 12 -8 0 -12 -4 -9 -9z"/>
<path d="M2666 2136 c4 -11 0 -13 -15 -9 -19 5 -21 1 -21 -46 0 -33 4 -51 12
-51 9 0 9 -3 0 -12 -7 -7 -12 -20 -12 -30 0 -10 5 -18 12 -18 9 0 9 -3 0 -12
-14 -14 -16 -104 -3 -112 5 -3 11 1 15 9 3 8 12 12 21 9 13 -5 15 2 14 45 -2
40 -5 51 -16 47 -11 -5 -11 -1 2 16 19 29 19 38 -2 38 -14 0 -15 2 -1 18 8 9
14 31 13 47 -1 17 -3 40 -4 53 0 12 -5 22 -11 22 -5 0 -7 -6 -4 -14z m4 -34
c0 -5 -7 -9 -15 -9 -8 0 -15 4 -15 9 0 4 7 8 15 8 8 0 15 -4 15 -8z m0 -26 c0
-2 -7 -7 -16 -10 -8 -3 -12 -2 -9 4 6 10 25 14 25 6z m3 -33 c-7 -2 -19 -2
-25 0 -7 3 -2 5 12 5 14 0 19 -2 13 -5z m-9 -111 c3 -5 -1 -9 -9 -9 -8 0 -15
4 -15 9 0 4 4 8 9 8 6 0 12 -4 15 -8z m11 -42 c-3 -5 -13 -10 -21 -10 -8 0
-12 5 -9 10 3 6 13 10 21 10 8 0 12 -4 9 -10z"/>
<path d="M3515 2139 c-4 -6 -5 -12 -2 -15 2 -3 7 2 10 11 7 17 1 20 -8 4z"/>
<path d="M3093 2129 c-13 -5 -23 -11 -23 -14 0 -4 5 -3 10 0 6 4 17 2 25 -5
15 -12 28 0 17 17 -4 6 -15 7 -29 2z"/>
<path d="M4910 2115 c0 -22 9 -30 52 -50 l52 -24 -57 -25 c-50 -23 -57 -29
-57 -53 1 -25 2 -26 11 -10 9 16 19 18 62 12 29 -4 59 -8 68 -11 12 -3 16 3
17 28 1 29 -1 31 -12 16 -9 -12 -26 -18 -52 -17 l-39 0 55 25 55 26 -55 28
-55 29 41 1 c22 0 45 -5 52 -12 9 -9 12 -4 12 26 0 30 -3 36 -12 28 -24 -18
-106 -22 -123 -6 -13 14 -15 13 -15 -11z"/>
<path d="M5123 2107 c-2 -28 -2 -83 1 -139 0 -11 4 -14 10 -8 11 11 10 160 -1
171 -5 5 -9 -6 -10 -24z"/>
<path d="M1757 2113 c-11 -12 -17 -13 -17 -5 0 7 -4 10 -10 7 -15 -9 -12 -25
5 -32 9 -3 22 2 30 13 14 19 14 18 15 0 0 -16 3 -17 12 -8 10 10 9 15 -3 27
-13 13 -17 13 -32 -2z"/>
<path d="M2795 2110 c3 -5 8 -10 11 -10 2 0 4 5 4 10 0 6 -5 10 -11 10 -5 0
-7 -4 -4 -10z"/>
<path d="M2540 2090 c0 -5 6 -10 13 -10 8 0 9 -3 1 -8 -6 -4 -11 -29 -11 -55
-1 -48 0 -49 28 -45 16 3 31 0 33 -6 2 -6 5 -3 5 7 1 9 -6 17 -15 17 -14 0
-14 3 -4 15 10 12 10 18 1 29 -9 11 -9 16 0 22 9 5 7 10 -7 15 -17 7 -17 8 -1
8 27 1 10 21 -19 21 -13 0 -24 -4 -24 -10z m40 -70 c0 -5 -7 -10 -15 -10 -8 0
-15 5 -15 10 0 6 7 10 15 10 8 0 15 -4 15 -10z"/>
<path d="M2970 2096 c0 -2 8 -10 18 -17 15 -13 16 -12 3 4 -13 16 -21 21 -21
13z"/>
<path d="M3376 2088 c3 -5 10 -6 15 -3 13 9 11 12 -6 12 -8 0 -12 -4 -9 -9z"/>
<path d="M1519 2080 c0 -3 -2 -13 -4 -22 -2 -14 4 -18 28 -19 31 -2 31 -2 5
-6 -16 -3 -28 -11 -28 -19 0 -8 5 -12 10 -9 6 3 10 -1 10 -10 0 -9 -4 -13 -10
-10 -6 4 -10 -11 -10 -39 0 -25 5 -48 10 -51 6 -3 10 1 10 11 0 12 6 15 25 12
19 -4 25 -1 25 12 0 13 -7 16 -31 12 -24 -4 -30 -1 -27 9 3 8 17 13 32 12 18
-1 26 3 26 14 0 9 -6 13 -15 9 -9 -3 -15 0 -15 9 0 9 6 12 16 8 13 -5 15 2 12
37 -3 41 -5 43 -36 44 -17 1 -32 -1 -33 -4z"/>
<path d="M2393 2070 c-1 -11 3 -20 8 -20 6 0 7 5 3 12 -5 8 -2 9 11 4 15 -5
16 -4 5 9 -17 20 -25 19 -27 -5z"/>
<path d="M1756 2065 c-10 -11 -15 -12 -18 -3 -3 8 -7 8 -11 2 -3 -5 -2 -16 3
-24 7 -12 12 -11 29 4 19 18 20 18 18 -2 -1 -13 -10 -23 -24 -27 -30 -7 -29
-19 2 -33 14 -6 25 -19 25 -28 0 -12 -7 -15 -25 -12 -23 5 -25 2 -25 -32 0
-42 15 -60 48 -57 20 1 22 6 22 68 0 56 -3 68 -17 72 -16 4 -16 5 -1 6 11 1
16 11 16 35 0 39 -20 53 -42 31z m4 -160 c0 -8 8 -15 17 -15 13 0 14 -3 6 -11
-17 -17 -42 -4 -40 20 1 24 17 29 17 6z"/>
<path d="M3074 2069 c-8 -14 13 -18 30 -6 16 12 16 13 -4 13 -12 0 -23 -4 -26
-7z"/>
<path d="M2367 2053 c-11 -11 -8 -21 9 -27 13 -5 14 -4 6 7 -7 8 -9 17 -5 20
3 4 4 7 1 7 -2 0 -8 -3 -11 -7z"/>
<path d="M5080 2050 c-9 -6 -10 -10 -3 -10 6 0 15 5 18 10 8 12 4 12 -15 0z"/>
<path d="M3483 2020 c-1 -11 2 -20 7 -20 4 0 7 7 6 15 -3 23 -12 26 -13 5z"/>
<path d="M2895 2021 c-3 -5 -2 -12 3 -15 5 -3 9 1 9 9 0 17 -3 19 -12 6z"/>
<path d="M3076 2021 c-3 -5 2 -15 12 -22 15 -12 16 -12 5 2 -7 9 -10 19 -6 22
3 4 4 7 0 7 -3 0 -8 -4 -11 -9z"/>
<path d="M4685 2011 c-3 -5 -2 -12 3 -15 5 -3 9 1 9 9 0 17 -3 19 -12 6z"/>
<path d="M1825 1991 c-3 -5 -2 -12 3 -15 5 -3 9 1 9 9 0 17 -3 19 -12 6z"/>
<path d="M1310 1981 c0 -6 4 -13 10 -16 6 -3 7 1 4 9 -7 18 -14 21 -14 7z"/>
<path d="M2890 1986 c0 -2 8 -10 18 -17 15 -13 16 -12 3 4 -13 16 -21 21 -21
13z"/>
<path d="M4595 1981 c-3 -5 -2 -12 3 -15 5 -3 9 1 9 9 0 17 -3 19 -12 6z"/>
<path d="M2060 1960 c-9 -6 -10 -10 -3 -10 6 0 15 5 18 10 8 12 4 12 -15 0z"/>
<path d="M2371 1957 c2 -1 13 -9 24 -17 19 -14 19 -14 6 3 -7 9 -18 17 -24 17
-6 0 -8 -1 -6 -3z"/>
<path d="M3124 1943 c23 -27 22 -27 29 -8 4 8 1 17 -5 21 -7 4 -8 3 -4 -4 10
-16 -6 -15 -24 1 -8 6 -6 2 4 -10z"/>
<path d="M4730 1956 c0 -2 8 -10 18 -17 15 -13 16 -12 3 4 -13 16 -21 21 -21
13z"/>
<path d="M3060 1946 c0 -2 8 -10 18 -17 15 -13 16 -12 3 4 -13 16 -21 21 -21
13z"/>
<path d="M2376 1928 c5 -8 2 -9 -11 -4 -16 6 -16 4 -4 -10 8 -10 15 -12 17 -5
2 6 9 8 15 4 7 -4 6 1 -2 10 -15 19 -26 23 -15 5z"/>
<path d="M2905 1931 c-3 -5 -2 -12 3 -15 5 -3 9 1 9 9 0 17 -3 19 -12 6z"/>
<path d="M3025 1920 c10 -11 20 -20 23 -20 3 0 -3 9 -13 20 -10 11 -20 20 -23
20 -3 0 3 -9 13 -20z"/>
<path d="M5129 1938 c-6 -23 -7 -48 -1 -48 4 0 9 11 10 25 1 14 0 25 -3 25 -3
0 -5 -1 -6 -2z"/>
<path d="M2435 1921 c-3 -5 -2 -12 3 -15 5 -3 9 1 9 9 0 17 -3 19 -12 6z"/>
<path d="M3316 1902 c-3 -5 1 -9 9 -9 8 0 12 4 9 9 -3 4 -7 8 -9 8 -2 0 -6 -4
-9 -8z"/>
<path d="M4105 1899 c-4 -6 -5 -12 -2 -15 2 -3 7 2 10 11 7 17 1 20 -8 4z"/>
<path d="M4959 1908 c-5 -19 -8 -50 -4 -46 7 7 15 48 9 48 -2 0 -4 -1 -5 -2z"/>
<path d="M1343 1893 c4 -3 1 -13 -6 -22 -10 -14 -10 -14 4 -4 9 7 20 9 25 5 4
-4 2 1 -5 11 -7 9 -16 17 -19 17 -3 0 -2 -3 1 -7z"/>
<path d="M1566 1867 c3 -10 9 -15 12 -12 3 3 0 11 -7 18 -10 9 -11 8 -5 -6z"/>
<path d="M3080 1876 c0 -2 8 -10 18 -17 15 -13 16 -12 3 4 -13 16 -21 21 -21
13z"/>
<path d="M3140 1876 c0 -2 8 -10 18 -17 15 -13 16 -12 3 4 -13 16 -21 21 -21
13z"/>
<path d="M3753 1865 c0 -8 4 -12 9 -9 5 3 6 10 3 15 -9 13 -12 11 -12 -6z"/>
<path d="M2380 1860 c-9 -6 -10 -10 -3 -10 6 0 15 5 18 10 8 12 4 12 -15 0z"/>
<path d="M3293 1852 c-10 -9 -13 -13 -6 -9 6 5 17 6 22 3 5 -4 12 -2 15 3 12
18 -12 21 -31 3z"/>
<path d="M4930 1861 c0 -6 4 -13 10 -16 6 -3 7 1 4 9 -7 18 -14 21 -14 7z"/>
<path d="M1869 1843 c-11 -15 -11 -16 1 -5 21 18 28 15 25 -13 -2 -14 0 -23 4
-20 11 6 6 48 -6 52 -5 2 -16 -4 -24 -14z"/>
<path d="M4144 1846 c1 -8 5 -18 8 -22 4 -3 5 1 4 10 -1 8 -5 18 -8 22 -4 3
-5 -1 -4 -10z"/>
<path d="M2040 1846 c0 -2 8 -10 18 -17 15 -13 16 -12 3 4 -13 16 -21 21 -21
13z"/>
<path d="M2103 1835 c0 -8 4 -12 9 -9 5 3 6 10 3 15 -9 13 -12 11 -12 -6z"/>
<path d="M2216 1841 c-5 -8 5 -20 30 -34 6 -3 11 0 11 7 0 7 -7 13 -16 12 -9
0 -15 5 -13 12 2 14 -4 16 -12 3z"/>
<path d="M2755 1833 c11 -12 18 -14 26 -6 8 8 7 13 -2 18 -8 5 -10 4 -5 -3 9
-15 -6 -16 -22 -2 -7 5 -5 2 3 -7z"/>
<path d="M2855 1841 c-3 -5 -2 -12 3 -15 5 -3 9 1 9 9 0 17 -3 19 -12 6z"/>
<path d="M3533 1835 c0 -8 4 -12 9 -9 5 3 6 10 3 15 -9 13 -12 11 -12 -6z"/>
<path d="M3033 1825 c0 -8 4 -12 9 -9 5 3 6 10 3 15 -9 13 -12 11 -12 -6z"/>
<path d="M3755 1831 c-3 -5 -2 -12 3 -15 5 -3 9 1 9 9 0 17 -3 19 -12 6z"/>
<path d="M3340 1819 c0 -5 5 -7 10 -4 6 3 10 8 10 11 0 2 -4 4 -10 4 -5 0 -10
-5 -10 -11z"/>
<path d="M4184 1822 c4 -3 14 -7 22 -8 9 -1 13 0 10 4 -4 3 -14 7 -22 8 -9 1
-13 0 -10 -4z"/>
<path d="M1765 1810 c-3 -5 -3 -10 1 -10 4 0 -5 -13 -21 -30 -25 -26 -25 -33
1 -29 4 0 11 -5 16 -13 8 -10 9 -9 4 4 -3 11 2 21 12 27 9 5 13 13 9 17 -4 4
1 17 10 28 10 12 11 15 3 9 -17 -15 -34 -17 -25 -3 3 6 4 10 1 10 -3 0 -8 -4
-11 -10z m0 -50 c-10 -11 -21 -17 -24 -14 -3 3 3 12 13 20 28 20 32 17 11 -6z"/>
<path d="M1946 1804 c-5 -14 -4 -15 9 -4 17 14 19 20 6 20 -5 0 -12 -7 -15
-16z"/>
<path d="M2581 1812 c0 -7 -5 -10 -11 -7 -6 3 -7 -1 -4 -9 3 -9 10 -16 16 -16
5 0 6 -4 3 -10 -4 -6 1 -7 11 -3 13 5 15 3 9 -8 -8 -12 -6 -12 8 0 18 14 22
22 10 20 -22 -4 -32 3 -36 24 -2 12 -5 16 -6 9z"/>
<path d="M2609 1812 c9 -7 10 -11 2 -15 -7 -4 -8 -5 -1 -3 16 2 14 20 -2 24
-10 3 -10 2 1 -6z"/>
<path d="M4606 1811 c-9 -13 18 -31 33 -22 9 6 10 11 2 15 -6 4 -11 2 -11 -4
0 -6 -5 -8 -10 -5 -6 4 -8 11 -5 16 4 5 4 9 1 9 -3 0 -7 -4 -10 -9z"/>
<path d="M4900 1813 c0 -19 20 -26 35 -13 8 6 20 8 27 4 10 -5 10 -4 1 6 -9
10 -16 10 -26 2 -10 -9 -16 -9 -25 0 -9 9 -12 9 -12 1z"/>
<path d="M1587 1793 c-16 -16 -19 -16 -27 -3 -9 14 -10 13 -10 -17 0 -4 10 -7
23 -7 12 0 22 4 22 9 0 6 4 16 8 23 11 17 4 15 -16 -5z"/>
<path d="M1809 1793 c-13 -16 -12 -17 4 -4 9 7 17 15 17 17 0 8 -8 3 -21 -13z"/>
<path d="M2917 1795 c-4 -8 -3 -16 1 -19 4 -3 9 4 9 15 2 23 -3 25 -10 4z"/>
<path d="M4170 1806 c0 -2 8 -10 18 -17 15 -13 16 -12 3 4 -13 16 -21 21 -21
13z"/>
<path d="M4230 1802 c0 -14 28 -23 36 -11 3 6 3 13 0 16 -3 4 -6 1 -6 -7 0
-10 -3 -10 -15 0 -9 7 -15 8 -15 2z"/>
<path d="M1715 1791 c-3 -5 -2 -12 3 -15 5 -3 9 1 9 9 0 17 -3 19 -12 6z"/>
<path d="M3533 1784 c0 -7 6 -10 13 -7 6 2 15 0 19 -6 10 -17 25 -13 25 7 0
14 -2 15 -10 2 -8 -13 -14 -8 -12 10 0 3 -7 6 -17 6 -10 0 -18 -6 -18 -12z"/>
<path d="M1816 1771 c-14 -15 -15 -21 -4 -27 7 -4 10 -3 5 1 -4 5 0 17 10 27
9 10 14 18 11 18 -3 0 -13 -9 -22 -19z"/>
<path d="M2009 1773 c-12 -16 -12 -17 2 -6 9 7 20 9 24 5 5 -4 5 -1 1 6 -9 16
-11 15 -27 -5z"/>
<path d="M3033 1775 c0 -8 4 -12 9 -9 5 3 6 10 3 15 -9 13 -12 11 -12 -6z"/>
<path d="M1876 1773 c-4 -4 -15 -8 -23 -8 -9 0 -17 -8 -19 -18 -1 -9 2 -15 7
-11 5 3 6 10 3 16 -5 7 -1 9 9 5 8 -3 21 1 27 9 13 14 9 20 -4 7z"/>
<path d="M1919 1767 c22 -27 45 -37 62 -25 11 8 11 9 -3 5 -9 -3 -29 4 -45 16
-20 15 -24 16 -14 4z"/>
<path d="M2335 1770 c-3 -6 1 -7 9 -4 18 7 21 14 7 14 -6 0 -13 -4 -16 -10z"/>
<path d="M1783 1735 c0 -8 4 -12 9 -9 5 3 6 10 3 15 -9 13 -12 11 -12 -6z"/>
<path d="M4910 3269 c0 -5 5 -7 10 -4 6 3 10 8 10 11 0 2 -4 4 -10 4 -5 0 -10
-5 -10 -11z"/>
<path d="M4992 3260 c0 -14 2 -19 5 -12 2 6 2 18 0 25 -3 6 -5 1 -5 -13z"/>
<path d="M4900 3184 c0 -8 5 -12 10 -9 6 4 8 11 5 16 -9 14 -15 11 -15 -7z"/>
<path d="M4920 3165 c0 -5 5 -17 10 -25 5 -8 10 -10 10 -5 0 6 -5 17 -10 25
-5 8 -10 11 -10 5z"/>
<path d="M4960 3150 c0 -5 5 -10 11 -10 5 0 7 5 4 10 -3 6 -8 10 -11 10 -2 0
-4 -4 -4 -10z"/>
<path d="M2050 3190 c0 -5 5 -10 10 -10 6 0 10 5 10 10 0 6 -4 10 -10 10 -5 0
-10 -4 -10 -10z"/>
</g>
</svg>
