<?xml version="1.0" standalone="no"?>
<!DOCTYPE svg PUBLIC "-//W3C//DTD SVG 20010904//EN"
 "http://www.w3.org/TR/2001/REC-SVG-20010904/DTD/svg10.dtd">
<svg version="1.0" xmlns="http://www.w3.org/2000/svg"
 width="640.000000pt" height="360.000000pt" viewBox="0 0 640.000000 360.000000"
 preserveAspectRatio="xMidYMid meet">

<g transform="translate(0.000000,360.000000) scale(0.100000,-0.100000)"
fill="#000000" stroke="none">
<path d="M0 1800 l0 -1800 3200 0 3200 0 0 1800 0 1800 -1480 0 c-1309 0
-1480 -2 -1480 -15 0 -8 6 -15 14 -15 29 0 143 -42 179 -66 21 -13 43 -22 49
-18 7 5 9 2 5 -9 -3 -9 -2 -19 3 -22 6 -4 10 -1 10 4 0 6 5 11 10 11 6 0 10
-7 10 -15 0 -9 6 -12 15 -9 11 4 15 -1 16 -17 0 -13 3 -18 6 -11 4 10 17 2 45
-25 21 -21 41 -37 43 -35 3 1 11 2 18 1 6 0 3 -4 -8 -9 -17 -8 -16 -9 9 -9 21
-1 27 -5 22 -16 -3 -9 0 -15 9 -15 9 0 12 -6 8 -15 -3 -9 -2 -15 3 -14 16 4
44 -13 38 -22 -3 -5 6 -20 20 -33 14 -13 26 -28 26 -33 0 -14 51 -70 70 -76
12 -4 11 -6 -2 -6 -10 -1 -18 -6 -18 -12 0 -6 7 -8 16 -5 12 4 15 2 10 -9 -3
-8 -1 -15 5 -15 6 0 9 -6 6 -14 -3 -8 3 -26 13 -39 11 -13 22 -39 25 -58 3
-18 10 -38 14 -44 5 -5 12 -31 15 -57 4 -26 11 -50 15 -53 5 -2 5 -22 1 -43
-4 -21 -3 -49 2 -61 4 -13 6 -27 3 -32 -3 -4 11 -17 32 -28 21 -11 34 -20 28
-21 -15 -1 122 -79 151 -86 13 -3 21 -10 18 -15 -3 -5 -2 -8 3 -7 15 5 113
-44 107 -53 -3 -5 1 -6 9 -4 7 3 24 -4 37 -15 13 -11 31 -18 39 -15 9 3 12 3
8 -1 -4 -4 24 -23 61 -42 342 -176 603 -364 852 -611 74 -74 106 -107 70 -74
-36 33 -75 63 -87 67 -12 4 -24 14 -27 22 -3 9 -11 12 -17 8 -7 -4 -9 -3 -6 3
3 5 -3 16 -15 24 -30 21 -65 52 -49 43 9 -5 12 -3 7 5 -4 6 -11 9 -16 6 -4 -2
-22 0 -40 6 -21 8 -28 14 -20 19 8 5 0 12 -22 19 -20 6 -52 24 -73 40 -22 16
-46 26 -57 23 -14 -3 -17 0 -12 12 3 9 2 16 -2 17 -41 3 -114 36 -114 51 0 5
-7 8 -15 8 -8 0 -15 5 -15 11 0 6 -7 9 -15 5 -8 -3 -14 -1 -12 5 1 6 -24 34
-56 62 -44 39 -60 48 -69 39 -15 -15 -31 -16 -22 0 4 6 3 8 -4 4 -6 -3 -17 3
-25 14 -7 11 -17 17 -20 14 -4 -4 -13 -1 -22 6 -9 8 -15 8 -15 2 0 -6 8 -13
18 -17 19 -6 72 -51 72 -60 0 -4 -12 3 -27 15 -37 28 -131 90 -137 90 -3 0 -4
-6 -2 -12 1 -7 1 -10 -1 -5 -3 4 -9 7 -14 7 -6 0 -38 18 -72 41 -55 36 -58 37
-23 7 82 -68 84 -70 61 -60 -11 4 -56 27 -101 50 -44 22 -89 40 -99 38 -11 -2
-26 4 -34 12 -10 10 -16 11 -19 3 -2 -6 -8 -11 -13 -11 -6 0 -7 5 -3 11 4 7 0
9 -14 5 -12 -4 -26 -1 -35 9 -9 8 -20 15 -25 15 -5 0 -22 10 -38 22 -15 13
-25 17 -20 10 4 -7 2 -12 -4 -12 -7 0 -8 -6 0 -19 16 -32 12 -36 -10 -8 -11
14 -20 30 -20 36 0 6 -7 8 -15 5 -8 -4 -12 -10 -9 -15 7 -12 -3 -11 -29 3 -20
10 -21 10 -8 -5 16 -20 2 -22 -24 -3 -10 7 -27 11 -37 8 -10 -2 -24 0 -31 5
-18 15 -77 33 -77 24 0 -4 5 -12 12 -19 16 -16 -24 -16 -72 -1 -33 11 -370 12
-525 3 -140 -9 -335 -11 -335 -3 0 9 -62 5 -95 -6 -16 -6 -17 -5 -5 4 13 9 11
11 -7 11 -12 0 -25 -5 -28 -10 -5 -8 -11 -8 -19 -1 -8 7 -53 9 -114 7 -57 -2
-99 0 -96 5 10 16 -9 9 -22 -8 -11 -14 -13 -15 -9 -2 5 13 0 15 -25 11 -16 -2
-33 -8 -36 -13 -9 -16 -26 -10 -20 7 6 15 4 15 -18 0 -32 -21 -42 -20 -25 1
13 15 12 15 -9 4 -12 -7 -20 -16 -17 -21 3 -5 0 -12 -6 -16 -8 -5 -9 -3 -4 6
6 10 3 12 -13 8 -14 -4 -20 -2 -15 5 4 7 0 8 -13 3 -10 -5 -28 -11 -39 -13
l-20 -5 20 16 c19 15 17 15 -18 1 -21 -9 -43 -13 -50 -9 -7 4 -9 4 -5 -1 8 -8
-20 -34 -37 -34 -5 0 -1 6 9 14 31 23 -3 19 -39 -5 -16 -11 -34 -20 -40 -20
-5 0 5 9 23 20 49 30 38 33 -18 5 -28 -14 -50 -21 -50 -16 0 5 4 11 10 13 5 2
-21 3 -58 4 -66 1 -67 1 -27 -11 35 -9 37 -12 17 -17 -13 -4 -20 -2 -16 4 9
14 -118 -3 -134 -19 -7 -7 -21 -13 -30 -14 -9 0 -37 -9 -62 -20 -35 -15 -38
-18 -15 -14 25 4 27 3 12 -6 -10 -6 -30 -12 -44 -14 -14 -1 -29 -9 -34 -16 -4
-7 -12 -10 -16 -5 -4 4 1 14 11 22 24 17 19 18 -23 3 -24 -8 -29 -14 -21 -24
13 -16 -20 -26 -44 -13 -10 6 -22 5 -33 -2 -15 -9 -14 -10 7 -6 14 3 19 3 12
0 -6 -3 -9 -11 -6 -16 4 -7 2 -8 -5 -4 -6 4 -27 -2 -46 -13 -24 -14 -37 -17
-41 -9 -4 6 -3 9 2 5 5 -3 18 1 29 9 10 8 14 14 9 14 -6 0 -15 -5 -22 -12 -7
-7 -12 -9 -12 -5 0 4 -13 1 -30 -8 -16 -9 -30 -18 -30 -21 0 -3 5 -2 10 1 6 3
10 2 10 -3 0 -5 -25 -17 -55 -27 -30 -9 -55 -22 -55 -28 0 -6 -3 -8 -6 -5 -3
3 -17 -6 -31 -20 -20 -20 -27 -22 -34 -11 -6 10 -9 10 -9 1 0 -6 -3 -11 -7
-10 -15 3 -43 -14 -37 -23 3 -5 -2 -9 -11 -9 -8 0 -34 -12 -58 -27 -23 -14
-47 -26 -54 -26 -7 0 -10 -4 -7 -9 3 -4 0 -8 -6 -8 -7 0 -23 -9 -37 -20 -14
-11 -29 -18 -32 -15 -4 2 -14 -5 -21 -16 -8 -10 -20 -19 -27 -19 -7 0 -13 -5
-13 -11 0 -5 -4 -7 -10 -4 -5 3 -10 2 -10 -4 0 -6 -11 -13 -25 -17 -14 -3 -25
-13 -25 -21 0 -8 -4 -12 -9 -8 -5 3 -18 -6 -29 -20 -11 -13 -22 -21 -26 -18
-3 3 -6 1 -6 -6 0 -7 -4 -10 -9 -7 -5 4 -11 3 -13 -1 -1 -5 -32 -35 -68 -68
-45 -41 -36 -29 30 39 240 247 518 452 847 623 82 42 154 83 162 91 7 7 21 10
29 7 9 -3 13 -3 9 1 -4 4 5 13 19 20 14 8 43 22 63 33 20 10 65 33 101 51 117
58 125 63 157 97 28 30 31 40 32 96 0 78 8 133 27 174 8 17 14 36 14 43 0 6 7
25 16 43 10 17 17 44 16 58 0 16 9 35 24 48 13 11 24 28 24 36 0 8 4 15 9 15
5 0 24 23 42 50 18 28 37 50 42 50 6 0 8 3 5 6 -8 7 75 94 89 94 5 0 24 16 42
35 17 19 38 35 46 35 8 0 18 6 22 14 4 7 27 23 51 35 23 12 42 26 42 31 0 6 3
9 8 9 14 -3 73 14 78 22 3 5 18 9 34 9 16 0 32 5 35 10 4 6 10 8 14 5 5 -2 17
2 27 10 17 13 -175 14 -1478 15 l-1498 0 0 -1800z m4175 560 c3 -6 -1 -7 -9
-4 -18 7 -21 14 -7 14 6 0 13 -4 16 -10z m75 0 c0 -5 -4 -10 -10 -10 -5 0 -10
5 -10 10 0 6 5 10 10 10 6 0 10 -4 10 -10z m-2110 -34 c0 -2 -7 -7 -16 -10 -8
-3 -12 -2 -9 4 6 10 25 14 25 6z m2764 -171 c45 -40 39 -48 -6 -10 -16 14 -33
23 -37 21 -4 -3 -8 1 -8 9 0 21 7 18 51 -20z m-1679 -675 c3 -5 1 -10 -4 -10
-6 0 -11 5 -11 10 0 6 2 10 4 10 3 0 8 -4 11 -10z"/>
<path d="M3385 3590 c3 -5 12 -10 20 -10 8 0 17 5 20 10 4 6 -5 10 -20 10 -15
0 -24 -4 -20 -10z"/>
<path d="M2228 2393 c7 -3 16 -2 19 1 4 3 -2 6 -13 5 -11 0 -14 -3 -6 -6z"/>
<path d="M4330 2386 c0 -2 7 -9 15 -16 9 -7 15 -8 15 -2 0 5 -7 12 -15 16 -8
3 -15 4 -15 2z"/>
<path d="M4394 2351 c20 -22 26 -25 26 -13 0 4 -10 13 -22 21 -23 14 -23 14
-4 -8z"/>
<path d="M4460 2356 c0 -2 7 -9 15 -16 9 -7 15 -8 15 -2 0 5 -7 12 -15 16 -8
3 -15 4 -15 2z"/>
<path d="M4520 2296 c0 -3 9 -10 20 -16 11 -6 20 -8 20 -6 0 3 -9 10 -20 16
-11 6 -20 8 -20 6z"/>
<path d="M4632 2274 c10 -10 20 -15 24 -12 3 4 -5 12 -18 18 -22 12 -22 12 -6
-6z"/>
<path d="M4960 2144 c0 -16 14 -31 40 -43 24 -12 24 -11 5 4 -11 8 -26 23 -32
32 -7 9 -13 13 -13 7z"/>
</g>
</svg>
